# xmcd
#
# Track frame offsets:
#	150
#	18008
#	36211
#	52943
#	72024
#	87296
#	101608
#	119584
#	137428
#	151023
#	170719
#	184554
#
# Disc length: 2697 seconds
#
# Revision: 2
# Processed by: cddbd v1.5.2PL0 Copyright (c) Steve Scherf et al.
# Submitted via: audiograbber 1.83.01
#
DISCID=8d0a870c
DTITLE=George Fox - Canadian
DYEAR=2003
DGENRE=Country
TTITLE0=Alberta Roots
TTITLE1=Real Canadian Town
TTITLE2=Tatanga Mani
TTITLE3=I Wouldn't Have Missed It
TTITLE4=I'm Canadian
TTITLE5=North West Mounted Police
TTITLE6=High-Toned Years
TTITLE7=Billy Green
TTITLE8=Try Me Out
TTITLE9=A Kind Word
TTITLE10=She's Gold
TTITLE11=Wayne the 99er
EXTD=
EXTT0=
EXTT1=
EXTT2=
EXTT3=
EXTT4=
EXTT5=
EXTT6=
EXTT7=
EXTT8=
EXTT9=
EXTT10=
EXTT11=
PLAYORDER=
